<svg xmlns="http://www.w3.org/2000/svg" xmlns:xlink="http://www.w3.org/1999/xlink" width="400" zoomAndPan="magnify" viewBox="0 0 300 74.999997" height="100" preserveAspectRatio="xMidYMid meet" version="1.0"><defs><g/><clipPath id="cbb2206c81"><path d="M 7.5 14 L 68 14 L 68 57 L 7.5 57 Z M 7.5 14 " clip-rule="nonzero"/></clipPath><clipPath id="aedc3ca35a"><path d="M 25 58 L 51 58 L 51 67.5 L 25 67.5 Z M 25 58 " clip-rule="nonzero"/></clipPath><clipPath id="8d51cf6eaf"><path d="M 24 7.5 L 40 7.5 L 40 23 L 24 23 Z M 24 7.5 " clip-rule="nonzero"/></clipPath></defs><g clip-path="url(#cbb2206c81)"><path fill="#ffffff" d="M 66.527344 14.746094 L 57.757812 14.746094 C 58.644531 15.699219 58.710938 17.222656 57.882812 18.242188 L 57.820312 18.367188 L 64.367188 18.367188 L 64.367188 49.003906 L 11.230469 49.003906 L 11.230469 18.367188 L 22.988281 18.367188 L 22.542969 17.160156 C 22.289062 16.335938 22.417969 15.445312 22.925781 14.746094 L 9.070312 14.746094 C 8.242188 14.746094 7.609375 15.382812 7.609375 16.207031 L 7.609375 55.167969 C 7.609375 55.996094 8.242188 56.632812 9.070312 56.632812 L 66.527344 56.632812 C 67.355469 56.632812 67.988281 55.996094 67.988281 55.167969 L 67.988281 16.207031 C 67.988281 15.382812 67.355469 14.746094 66.527344 14.746094 Z M 37.800781 54.660156 C 36.78125 54.660156 35.957031 53.835938 35.957031 52.816406 C 35.957031 51.800781 36.78125 50.972656 37.800781 50.972656 C 38.816406 50.972656 39.640625 51.800781 39.640625 52.816406 C 39.640625 53.769531 38.816406 54.660156 37.800781 54.660156 Z M 37.800781 54.660156 " fill-opacity="1" fill-rule="nonzero"/></g><g clip-path="url(#aedc3ca35a)"><path fill="#ffffff" d="M 50.320312 65.53125 L 50.320312 66.929688 C 50.320312 67.246094 50.066406 67.5 49.746094 67.5 L 25.851562 67.5 C 25.53125 67.5 25.277344 67.246094 25.277344 66.929688 L 25.277344 65.53125 C 25.277344 65.210938 25.53125 64.957031 25.851562 64.957031 L 30.109375 64.957031 L 31.253906 58.539062 L 44.410156 58.539062 L 45.554688 64.957031 L 49.8125 64.957031 C 50.066406 64.957031 50.320312 65.210938 50.320312 65.53125 Z M 50.320312 65.53125 " fill-opacity="1" fill-rule="nonzero"/></g><path fill="#ffffff" d="M 57.820312 20.910156 L 56.292969 20.71875 C 55.722656 20.65625 55.214844 20.277344 54.960938 19.703125 C 54.769531 19.132812 54.832031 18.558594 55.152344 18.050781 L 56.105469 16.84375 C 56.230469 16.652344 56.230469 16.398438 56.039062 16.207031 L 54.453125 14.617188 C 54.261719 14.429688 54.007812 14.429688 53.816406 14.554688 L 52.609375 15.507812 C 52.164062 15.890625 51.527344 15.953125 50.957031 15.699219 C 50.382812 15.507812 50.003906 15 49.9375 14.429688 L 49.875 12.964844 C 49.875 12.710938 49.621094 12.519531 49.429688 12.519531 L 47.140625 12.519531 C 46.886719 12.519531 46.695312 12.710938 46.695312 12.964844 L 46.507812 14.492188 C 46.441406 15.0625 46.0625 15.570312 45.488281 15.761719 C 44.917969 16.015625 44.34375 15.953125 43.835938 15.570312 L 42.628906 14.617188 C 42.4375 14.492188 42.183594 14.492188 41.992188 14.683594 L 40.40625 16.269531 C 40.214844 16.460938 40.214844 16.714844 40.339844 16.90625 L 41.292969 18.113281 C 41.675781 18.558594 41.738281 19.195312 41.484375 19.765625 C 41.230469 20.339844 40.785156 20.71875 40.152344 20.785156 L 38.625 20.972656 C 38.371094 20.972656 38.179688 21.230469 38.179688 21.417969 L 38.179688 23.707031 C 38.179688 23.960938 38.371094 24.152344 38.625 24.152344 L 40.152344 24.34375 C 40.722656 24.40625 41.230469 24.789062 41.484375 25.359375 C 41.738281 25.933594 41.613281 26.503906 41.292969 27.011719 L 40.339844 28.15625 C 40.214844 28.347656 40.214844 28.601562 40.40625 28.792969 L 41.992188 30.382812 C 42.183594 30.570312 42.4375 30.570312 42.628906 30.445312 L 43.835938 29.492188 C 44.28125 29.109375 44.917969 29.046875 45.488281 29.300781 C 46.0625 29.492188 46.441406 30 46.507812 30.636719 L 46.695312 32.160156 C 46.695312 32.414062 46.953125 32.605469 47.140625 32.605469 L 49.429688 32.605469 C 49.683594 32.605469 49.875 32.414062 49.875 32.160156 L 50.066406 30.636719 C 50.128906 30.0625 50.511719 29.554688 51.082031 29.300781 C 51.65625 29.046875 52.226562 29.109375 52.734375 29.492188 L 53.941406 30.445312 C 54.132812 30.570312 54.386719 30.570312 54.578125 30.382812 L 56.167969 28.792969 C 56.359375 28.601562 56.359375 28.347656 56.230469 28.15625 L 55.277344 26.949219 C 54.894531 26.503906 54.832031 25.867188 55.085938 25.296875 C 55.339844 24.722656 55.785156 24.34375 56.421875 24.28125 L 57.945312 24.089844 C 58.203125 24.027344 58.390625 23.835938 58.390625 23.644531 L 58.390625 21.355469 C 58.265625 21.101562 58.074219 20.910156 57.820312 20.910156 Z M 48.222656 26.886719 C 45.808594 26.886719 43.835938 24.914062 43.835938 22.5 C 43.835938 20.085938 45.808594 18.113281 48.222656 18.113281 C 50.636719 18.113281 52.609375 20.085938 52.609375 22.5 C 52.609375 24.914062 50.636719 26.886719 48.222656 26.886719 Z M 48.222656 26.886719 " fill-opacity="1" fill-rule="nonzero"/><path fill="#ffffff" d="M 48.222656 19.894531 C 46.761719 19.894531 45.617188 21.039062 45.617188 22.5 C 45.617188 23.960938 46.761719 25.105469 48.222656 25.105469 C 49.683594 25.105469 50.828125 23.960938 50.828125 22.5 C 50.828125 21.039062 49.683594 19.894531 48.222656 19.894531 Z M 48.222656 19.894531 " fill-opacity="1" fill-rule="nonzero"/><path fill="#ffffff" d="M 40.59375 31.589844 L 39.070312 31.398438 C 38.496094 31.335938 37.988281 30.953125 37.734375 30.382812 C 37.542969 29.808594 37.609375 29.238281 37.925781 28.730469 L 38.878906 27.519531 C 39.007812 27.332031 39.007812 27.078125 38.816406 26.886719 L 37.226562 25.296875 C 37.035156 25.105469 36.78125 25.105469 36.589844 25.234375 L 35.382812 26.1875 C 34.9375 26.566406 34.304688 26.632812 33.730469 26.378906 C 33.160156 26.1875 32.777344 25.679688 32.714844 25.105469 L 32.523438 23.582031 C 32.523438 23.328125 32.269531 23.136719 32.078125 23.136719 L 29.789062 23.136719 C 29.535156 23.136719 29.34375 23.328125 29.34375 23.582031 L 29.15625 25.105469 C 29.089844 25.679688 28.710938 26.1875 28.136719 26.378906 C 27.566406 26.632812 26.992188 26.566406 26.484375 26.1875 L 25.277344 25.234375 C 25.085938 25.105469 24.832031 25.105469 24.640625 25.296875 L 23.179688 26.949219 C 22.988281 27.140625 22.988281 27.394531 23.117188 27.585938 L 24.070312 28.792969 C 24.453125 29.238281 24.515625 29.871094 24.261719 30.445312 C 24.007812 31.015625 23.5625 31.398438 22.925781 31.460938 L 21.402344 31.652344 C 21.144531 31.652344 20.957031 31.90625 20.957031 32.097656 L 20.957031 34.386719 C 20.957031 34.640625 21.144531 34.832031 21.402344 34.832031 L 22.925781 35.019531 C 23.496094 35.085938 24.007812 35.464844 24.261719 36.039062 C 24.515625 36.609375 24.386719 37.183594 24.070312 37.691406 L 23.179688 38.835938 C 23.054688 39.027344 23.054688 39.28125 23.242188 39.46875 L 24.832031 41.058594 C 25.023438 41.25 25.277344 41.25 25.46875 41.121094 L 26.675781 40.167969 C 27.121094 39.789062 27.757812 39.722656 28.328125 39.980469 C 28.902344 40.167969 29.28125 40.679688 29.34375 41.3125 L 29.535156 42.839844 C 29.535156 43.09375 29.789062 43.285156 29.980469 43.285156 L 32.269531 43.285156 C 32.523438 43.285156 32.714844 43.09375 32.714844 42.839844 L 32.90625 41.3125 C 32.96875 40.742188 33.351562 40.234375 33.921875 39.980469 C 34.492188 39.722656 35.066406 39.789062 35.574219 40.167969 L 36.78125 41.121094 C 36.972656 41.25 37.226562 41.25 37.417969 41.058594 L 39.007812 39.46875 C 39.195312 39.28125 39.195312 39.027344 39.070312 38.835938 L 38.117188 37.628906 C 37.734375 37.183594 37.671875 36.546875 37.925781 35.972656 C 38.179688 35.402344 38.625 35.019531 39.261719 34.957031 L 40.785156 34.765625 C 41.039062 34.703125 41.230469 34.511719 41.230469 34.320312 L 41.230469 32.035156 C 41.039062 31.78125 40.851562 31.589844 40.59375 31.589844 Z M 31.0625 37.5625 C 28.644531 37.5625 26.675781 35.59375 26.675781 33.179688 C 26.675781 30.761719 28.644531 28.792969 31.0625 28.792969 C 33.476562 28.792969 35.445312 30.761719 35.445312 33.179688 C 35.382812 35.59375 33.476562 37.5625 31.0625 37.5625 Z M 31.0625 37.5625 " fill-opacity="1" fill-rule="nonzero"/><path fill="#ffffff" d="M 31.0625 30.570312 C 29.601562 30.570312 28.457031 31.714844 28.457031 33.179688 C 28.457031 34.640625 29.601562 35.785156 31.0625 35.785156 C 32.523438 35.785156 33.667969 34.640625 33.667969 33.179688 C 33.667969 31.714844 32.523438 30.570312 31.0625 30.570312 Z M 31.0625 30.570312 " fill-opacity="1" fill-rule="nonzero"/><g clip-path="url(#8d51cf6eaf)"><path fill="#ffffff" d="M 38.6875 16.84375 L 37.734375 16.207031 C 37.355469 15.953125 37.164062 15.570312 37.226562 15.128906 C 37.226562 14.683594 37.480469 14.300781 37.925781 14.109375 L 38.941406 13.601562 C 39.070312 13.539062 39.195312 13.347656 39.132812 13.15625 L 38.5625 11.566406 C 38.433594 11.503906 38.242188 11.378906 38.117188 11.441406 L 37.035156 11.695312 C 36.589844 11.820312 36.210938 11.632812 35.890625 11.3125 C 35.574219 10.996094 35.511719 10.550781 35.636719 10.105469 L 36.019531 9.027344 C 36.082031 8.835938 36.019531 8.644531 35.828125 8.582031 L 34.304688 7.816406 C 34.175781 7.753906 33.984375 7.816406 33.859375 7.945312 L 33.222656 8.898438 C 32.96875 9.28125 32.585938 9.46875 32.140625 9.40625 C 31.695312 9.40625 31.316406 9.152344 31.125 8.769531 L 30.617188 7.753906 C 30.554688 7.5625 30.363281 7.5 30.171875 7.5625 L 28.582031 8.136719 C 28.390625 8.199219 28.328125 8.390625 28.328125 8.515625 L 28.582031 9.597656 C 28.644531 10.042969 28.519531 10.421875 28.203125 10.742188 C 27.882812 11.058594 27.4375 11.121094 26.992188 10.996094 L 25.914062 10.613281 C 25.722656 10.550781 25.59375 10.613281 25.46875 10.804688 L 24.769531 12.265625 C 24.707031 12.457031 24.769531 12.585938 24.894531 12.710938 L 25.851562 13.347656 C 26.230469 13.601562 26.421875 13.984375 26.359375 14.429688 C 26.359375 14.871094 26.105469 15.253906 25.722656 15.445312 L 24.707031 15.953125 C 24.515625 16.015625 24.453125 16.207031 24.515625 16.398438 L 25.023438 17.988281 C 25.085938 18.179688 25.277344 18.242188 25.40625 18.242188 L 26.546875 17.988281 C 26.992188 17.859375 27.375 18.050781 27.691406 18.367188 C 28.011719 18.6875 28.074219 19.132812 27.945312 19.578125 L 27.566406 20.65625 C 27.503906 20.847656 27.566406 21.039062 27.757812 21.101562 L 29.28125 21.863281 C 29.410156 21.929688 29.664062 21.863281 29.726562 21.738281 L 30.363281 20.785156 C 30.617188 20.402344 30.996094 20.210938 31.441406 20.277344 C 31.886719 20.277344 32.269531 20.53125 32.460938 20.910156 L 32.96875 21.929688 C 33.03125 22.117188 33.222656 22.183594 33.414062 22.117188 L 35.003906 21.546875 C 35.191406 21.484375 35.257812 21.292969 35.257812 21.164062 L 35.003906 20.085938 C 34.875 19.640625 35.066406 19.257812 35.382812 18.941406 C 35.703125 18.621094 36.144531 18.558594 36.589844 18.6875 L 37.671875 19.066406 C 37.863281 19.132812 37.988281 19.066406 38.117188 18.878906 L 38.816406 17.414062 C 38.878906 17.160156 38.816406 16.96875 38.6875 16.84375 Z M 30.425781 17.734375 C 28.835938 16.96875 28.203125 15.0625 28.964844 13.472656 C 29.726562 11.886719 31.632812 11.25 33.222656 12.011719 C 34.8125 12.777344 35.445312 14.683594 34.683594 16.269531 C 33.921875 17.796875 32.015625 18.496094 30.425781 17.734375 Z M 30.425781 17.734375 " fill-opacity="1" fill-rule="nonzero"/></g><path fill="#ffffff" d="M 32.714844 13.09375 C 31.761719 12.648438 30.617188 13.03125 30.171875 13.984375 C 29.726562 14.9375 30.109375 16.082031 31.0625 16.527344 C 32.015625 16.96875 33.160156 16.589844 33.605469 15.636719 C 34.050781 14.746094 33.667969 13.601562 32.714844 13.09375 Z M 32.714844 13.09375 " fill-opacity="1" fill-rule="nonzero"/><g fill="#ffffff" fill-opacity="1"><g transform="translate(70.188866, 44.773977)"><g><path d="M 9.4375 0 L 5.53125 0 L 5.53125 -15.1875 L 0.515625 -15.1875 L 0.515625 -18.453125 L 14.453125 -18.453125 L 14.453125 -15.1875 L 9.4375 -15.1875 Z M 9.4375 0 "/></g></g></g><g fill="#ffffff" fill-opacity="1"><g transform="translate(85.151573, 44.773977)"><g><path d="M 7.859375 -11.640625 C 7.046875 -11.640625 6.40625 -11.378906 5.9375 -10.859375 C 5.476562 -10.335938 5.21875 -9.601562 5.15625 -8.65625 L 10.546875 -8.65625 C 10.535156 -9.601562 10.285156 -10.335938 9.796875 -10.859375 C 9.316406 -11.378906 8.671875 -11.640625 7.859375 -11.640625 Z M 8.40625 0.25 C 6.132812 0.25 4.359375 -0.375 3.078125 -1.625 C 1.796875 -2.882812 1.15625 -4.660156 1.15625 -6.953125 C 1.15625 -9.316406 1.742188 -11.144531 2.921875 -12.4375 C 4.109375 -13.726562 5.75 -14.375 7.84375 -14.375 C 9.832031 -14.375 11.378906 -13.804688 12.484375 -12.671875 C 13.597656 -11.535156 14.15625 -9.96875 14.15625 -7.96875 L 14.15625 -6.09375 L 5.0625 -6.09375 C 5.101562 -5 5.425781 -4.144531 6.03125 -3.53125 C 6.632812 -2.914062 7.484375 -2.609375 8.578125 -2.609375 C 9.429688 -2.609375 10.234375 -2.695312 10.984375 -2.875 C 11.742188 -3.050781 12.535156 -3.332031 13.359375 -3.71875 L 13.359375 -0.75 C 12.691406 -0.40625 11.972656 -0.15625 11.203125 0 C 10.441406 0.164062 9.507812 0.25 8.40625 0.25 Z M 8.40625 0.25 "/></g></g></g><g fill="#ffffff" fill-opacity="1"><g transform="translate(100.417067, 44.773977)"><g><path d="M 14.65625 0 L 10.796875 0 L 10.796875 -8.234375 C 10.796875 -9.253906 10.625 -10.019531 10.28125 -10.53125 C 9.945312 -11.039062 9.414062 -11.296875 8.6875 -11.296875 C 7.695312 -11.296875 6.976562 -10.929688 6.53125 -10.203125 C 6.09375 -9.484375 5.875 -8.296875 5.875 -6.640625 L 5.875 0 L 2.015625 0 L 2.015625 -14.109375 L 4.953125 -14.109375 L 5.484375 -12.296875 L 5.6875 -12.296875 C 6.070312 -12.953125 6.617188 -13.460938 7.328125 -13.828125 C 8.046875 -14.191406 8.867188 -14.375 9.796875 -14.375 C 11.898438 -14.375 13.328125 -13.679688 14.078125 -12.296875 L 14.421875 -12.296875 C 14.796875 -12.953125 15.351562 -13.460938 16.09375 -13.828125 C 16.832031 -14.191406 17.664062 -14.375 18.59375 -14.375 C 20.1875 -14.375 21.394531 -13.960938 22.21875 -13.140625 C 23.039062 -12.316406 23.453125 -11.003906 23.453125 -9.203125 L 23.453125 0 L 19.578125 0 L 19.578125 -8.234375 C 19.578125 -9.253906 19.40625 -10.019531 19.0625 -10.53125 C 18.726562 -11.039062 18.195312 -11.296875 17.46875 -11.296875 C 16.519531 -11.296875 15.8125 -10.957031 15.34375 -10.28125 C 14.882812 -9.613281 14.65625 -8.546875 14.65625 -7.078125 Z M 14.65625 0 "/></g></g></g><g fill="#ffffff" fill-opacity="1"><g transform="translate(125.788066, 44.773977)"><g><path d="M 9.765625 0.25 C 8.109375 0.25 6.8125 -0.347656 5.875 -1.546875 L 5.671875 -1.546875 C 5.804688 -0.367188 5.875 0.304688 5.875 0.484375 L 5.875 6.203125 L 2.015625 6.203125 L 2.015625 -14.109375 L 5.15625 -14.109375 L 5.6875 -12.28125 L 5.875 -12.28125 C 6.769531 -13.675781 8.101562 -14.375 9.875 -14.375 C 11.53125 -14.375 12.828125 -13.726562 13.765625 -12.4375 C 14.710938 -11.15625 15.1875 -9.367188 15.1875 -7.078125 C 15.1875 -5.578125 14.96875 -4.269531 14.53125 -3.15625 C 14.09375 -2.039062 13.460938 -1.191406 12.640625 -0.609375 C 11.828125 -0.0351562 10.867188 0.25 9.765625 0.25 Z M 8.625 -11.296875 C 7.675781 -11.296875 6.984375 -11.003906 6.546875 -10.421875 C 6.109375 -9.835938 5.882812 -8.867188 5.875 -7.515625 L 5.875 -7.109375 C 5.875 -5.585938 6.097656 -4.5 6.546875 -3.84375 C 6.992188 -3.1875 7.707031 -2.859375 8.6875 -2.859375 C 10.40625 -2.859375 11.265625 -4.28125 11.265625 -7.125 C 11.265625 -8.519531 11.050781 -9.5625 10.625 -10.25 C 10.207031 -10.945312 9.539062 -11.296875 8.625 -11.296875 Z M 8.625 -11.296875 "/></g></g></g><g fill="#ffffff" fill-opacity="1"><g transform="translate(142.138546, 44.773977)"><g><path d="M 5.875 0 L 2.015625 0 L 2.015625 -19.640625 L 5.875 -19.640625 Z M 5.875 0 "/></g></g></g><g fill="#ffffff" fill-opacity="1"><g transform="translate(150.023615, 44.773977)"><g><path d="M 10.984375 0 L 10.234375 -1.921875 L 10.140625 -1.921875 C 9.484375 -1.097656 8.8125 -0.53125 8.125 -0.21875 C 7.445312 0.09375 6.554688 0.25 5.453125 0.25 C 4.097656 0.25 3.03125 -0.132812 2.25 -0.90625 C 1.46875 -1.675781 1.078125 -2.78125 1.078125 -4.21875 C 1.078125 -5.71875 1.601562 -6.820312 2.65625 -7.53125 C 3.707031 -8.238281 5.285156 -8.628906 7.390625 -8.703125 L 9.84375 -8.78125 L 9.84375 -9.40625 C 9.84375 -10.832031 9.109375 -11.546875 7.640625 -11.546875 C 6.515625 -11.546875 5.191406 -11.207031 3.671875 -10.53125 L 2.390625 -13.125 C 4.015625 -13.96875 5.816406 -14.390625 7.796875 -14.390625 C 9.691406 -14.390625 11.144531 -13.976562 12.15625 -13.15625 C 13.164062 -12.332031 13.671875 -11.082031 13.671875 -9.40625 L 13.671875 0 Z M 9.84375 -6.53125 L 8.359375 -6.484375 C 7.234375 -6.453125 6.394531 -6.25 5.84375 -5.875 C 5.300781 -5.507812 5.03125 -4.945312 5.03125 -4.1875 C 5.03125 -3.101562 5.65625 -2.5625 6.90625 -2.5625 C 7.789062 -2.5625 8.5 -2.816406 9.03125 -3.328125 C 9.570312 -3.835938 9.84375 -4.519531 9.84375 -5.375 Z M 9.84375 -6.53125 "/></g></g></g><g fill="#ffffff" fill-opacity="1"><g transform="translate(165.629744, 44.773977)"><g><path d="M 7.96875 -2.8125 C 8.632812 -2.8125 9.441406 -2.957031 10.390625 -3.25 L 10.390625 -0.390625 C 9.429688 0.0351562 8.253906 0.25 6.859375 0.25 C 5.316406 0.25 4.191406 -0.132812 3.484375 -0.90625 C 2.785156 -1.6875 2.4375 -2.859375 2.4375 -4.421875 L 2.4375 -11.21875 L 0.59375 -11.21875 L 0.59375 -12.84375 L 2.71875 -14.140625 L 3.828125 -17.109375 L 6.28125 -17.109375 L 6.28125 -14.109375 L 10.234375 -14.109375 L 10.234375 -11.21875 L 6.28125 -11.21875 L 6.28125 -4.421875 C 6.28125 -3.867188 6.429688 -3.460938 6.734375 -3.203125 C 7.046875 -2.941406 7.457031 -2.8125 7.96875 -2.8125 Z M 7.96875 -2.8125 "/></g></g></g><g fill="#ffffff" fill-opacity="1"><g transform="translate(176.845467, 44.773977)"><g><path d="M 7.859375 -11.640625 C 7.046875 -11.640625 6.40625 -11.378906 5.9375 -10.859375 C 5.476562 -10.335938 5.21875 -9.601562 5.15625 -8.65625 L 10.546875 -8.65625 C 10.535156 -9.601562 10.285156 -10.335938 9.796875 -10.859375 C 9.316406 -11.378906 8.671875 -11.640625 7.859375 -11.640625 Z M 8.40625 0.25 C 6.132812 0.25 4.359375 -0.375 3.078125 -1.625 C 1.796875 -2.882812 1.15625 -4.660156 1.15625 -6.953125 C 1.15625 -9.316406 1.742188 -11.144531 2.921875 -12.4375 C 4.109375 -13.726562 5.75 -14.375 7.84375 -14.375 C 9.832031 -14.375 11.378906 -13.804688 12.484375 -12.671875 C 13.597656 -11.535156 14.15625 -9.96875 14.15625 -7.96875 L 14.15625 -6.09375 L 5.0625 -6.09375 C 5.101562 -5 5.425781 -4.144531 6.03125 -3.53125 C 6.632812 -2.914062 7.484375 -2.609375 8.578125 -2.609375 C 9.429688 -2.609375 10.234375 -2.695312 10.984375 -2.875 C 11.742188 -3.050781 12.535156 -3.332031 13.359375 -3.71875 L 13.359375 -0.75 C 12.691406 -0.40625 11.972656 -0.15625 11.203125 0 C 10.441406 0.164062 9.507812 0.25 8.40625 0.25 Z M 8.40625 0.25 "/></g></g></g><g fill="#ffffff" fill-opacity="1"><g transform="translate(192.110961, 44.773977)"><g/></g></g><g fill="#ffffff" fill-opacity="1"><g transform="translate(198.822732, 44.773977)"><g><path d="M 13.21875 -5.125 C 13.21875 -3.457031 12.613281 -2.144531 11.40625 -1.1875 C 10.207031 -0.226562 8.539062 0.25 6.40625 0.25 C 4.4375 0.25 2.695312 -0.117188 1.1875 -0.859375 L 1.1875 -4.5 C 2.425781 -3.9375 3.476562 -3.539062 4.34375 -3.3125 C 5.207031 -3.09375 6 -2.984375 6.71875 -2.984375 C 7.570312 -2.984375 8.226562 -3.144531 8.6875 -3.46875 C 9.144531 -3.800781 9.375 -4.289062 9.375 -4.9375 C 9.375 -5.300781 9.269531 -5.625 9.0625 -5.90625 C 8.863281 -6.1875 8.566406 -6.457031 8.171875 -6.71875 C 7.785156 -6.976562 6.992188 -7.394531 5.796875 -7.96875 C 4.660156 -8.488281 3.8125 -8.992188 3.25 -9.484375 C 2.6875 -9.972656 2.238281 -10.539062 1.90625 -11.1875 C 1.570312 -11.84375 1.40625 -12.601562 1.40625 -13.46875 C 1.40625 -15.09375 1.957031 -16.375 3.0625 -17.3125 C 4.164062 -18.25 5.691406 -18.71875 7.640625 -18.71875 C 8.597656 -18.71875 9.515625 -18.601562 10.390625 -18.375 C 11.265625 -18.144531 12.175781 -17.828125 13.125 -17.421875 L 11.859375 -14.375 C 10.878906 -14.78125 10.066406 -15.0625 9.421875 -15.21875 C 8.773438 -15.375 8.140625 -15.453125 7.515625 -15.453125 C 6.773438 -15.453125 6.207031 -15.28125 5.8125 -14.9375 C 5.414062 -14.59375 5.21875 -14.144531 5.21875 -13.59375 C 5.21875 -13.25 5.296875 -12.945312 5.453125 -12.6875 C 5.617188 -12.425781 5.875 -12.175781 6.21875 -11.9375 C 6.570312 -11.695312 7.398438 -11.269531 8.703125 -10.65625 C 10.429688 -9.820312 11.613281 -8.988281 12.25 -8.15625 C 12.894531 -7.332031 13.21875 -6.320312 13.21875 -5.125 Z M 13.21875 -5.125 "/></g></g></g><g fill="#ffffff" fill-opacity="1"><g transform="translate(213.053705, 44.773977)"><g><path d="M 0 -14.109375 L 4.21875 -14.109375 L 6.875 -6.171875 C 7.101562 -5.484375 7.257812 -4.664062 7.34375 -3.71875 L 7.421875 -3.71875 C 7.515625 -4.582031 7.695312 -5.398438 7.96875 -6.171875 L 10.578125 -14.109375 L 14.703125 -14.109375 L 8.734375 1.796875 C 8.179688 3.273438 7.398438 4.378906 6.390625 5.109375 C 5.378906 5.835938 4.195312 6.203125 2.84375 6.203125 C 2.175781 6.203125 1.523438 6.132812 0.890625 6 L 0.890625 2.9375 C 1.347656 3.050781 1.847656 3.109375 2.390625 3.109375 C 3.078125 3.109375 3.675781 2.898438 4.1875 2.484375 C 4.695312 2.066406 5.09375 1.4375 5.375 0.59375 L 5.609375 -0.09375 Z M 0 -14.109375 "/></g></g></g><g fill="#ffffff" fill-opacity="1"><g transform="translate(227.751474, 44.773977)"><g><path d="M 11.859375 -4.1875 C 11.859375 -2.738281 11.351562 -1.632812 10.34375 -0.875 C 9.34375 -0.125 7.84375 0.25 5.84375 0.25 C 4.8125 0.25 3.929688 0.179688 3.203125 0.046875 C 2.484375 -0.0859375 1.8125 -0.289062 1.1875 -0.5625 L 1.1875 -3.75 C 1.90625 -3.414062 2.710938 -3.132812 3.609375 -2.90625 C 4.503906 -2.675781 5.289062 -2.5625 5.96875 -2.5625 C 7.363281 -2.5625 8.0625 -2.960938 8.0625 -3.765625 C 8.0625 -4.078125 7.96875 -4.328125 7.78125 -4.515625 C 7.601562 -4.703125 7.285156 -4.914062 6.828125 -5.15625 C 6.367188 -5.394531 5.765625 -5.675781 5.015625 -6 C 3.921875 -6.445312 3.117188 -6.863281 2.609375 -7.25 C 2.109375 -7.644531 1.738281 -8.09375 1.5 -8.59375 C 1.269531 -9.09375 1.15625 -9.707031 1.15625 -10.4375 C 1.15625 -11.6875 1.640625 -12.65625 2.609375 -13.34375 C 3.585938 -14.03125 4.96875 -14.375 6.75 -14.375 C 8.445312 -14.375 10.097656 -14.003906 11.703125 -13.265625 L 10.546875 -10.484375 C 9.835938 -10.785156 9.175781 -11.03125 8.5625 -11.21875 C 7.945312 -11.414062 7.320312 -11.515625 6.6875 -11.515625 C 5.550781 -11.515625 4.984375 -11.207031 4.984375 -10.59375 C 4.984375 -10.25 5.164062 -9.953125 5.53125 -9.703125 C 5.894531 -9.453125 6.695312 -9.078125 7.9375 -8.578125 C 9.039062 -8.128906 9.847656 -7.710938 10.359375 -7.328125 C 10.867188 -6.941406 11.242188 -6.492188 11.484375 -5.984375 C 11.734375 -5.484375 11.859375 -4.882812 11.859375 -4.1875 Z M 11.859375 -4.1875 "/></g></g></g><g fill="#ffffff" fill-opacity="1"><g transform="translate(240.594675, 44.773977)"><g><path d="M 7.96875 -2.8125 C 8.632812 -2.8125 9.441406 -2.957031 10.390625 -3.25 L 10.390625 -0.390625 C 9.429688 0.0351562 8.253906 0.25 6.859375 0.25 C 5.316406 0.25 4.191406 -0.132812 3.484375 -0.90625 C 2.785156 -1.6875 2.4375 -2.859375 2.4375 -4.421875 L 2.4375 -11.21875 L 0.59375 -11.21875 L 0.59375 -12.84375 L 2.71875 -14.140625 L 3.828125 -17.109375 L 6.28125 -17.109375 L 6.28125 -14.109375 L 10.234375 -14.109375 L 10.234375 -11.21875 L 6.28125 -11.21875 L 6.28125 -4.421875 C 6.28125 -3.867188 6.429688 -3.460938 6.734375 -3.203125 C 7.046875 -2.941406 7.457031 -2.8125 7.96875 -2.8125 Z M 7.96875 -2.8125 "/></g></g></g><g fill="#ffffff" fill-opacity="1"><g transform="translate(251.810398, 44.773977)"><g><path d="M 7.859375 -11.640625 C 7.046875 -11.640625 6.40625 -11.378906 5.9375 -10.859375 C 5.476562 -10.335938 5.21875 -9.601562 5.15625 -8.65625 L 10.546875 -8.65625 C 10.535156 -9.601562 10.285156 -10.335938 9.796875 -10.859375 C 9.316406 -11.378906 8.671875 -11.640625 7.859375 -11.640625 Z M 8.40625 0.25 C 6.132812 0.25 4.359375 -0.375 3.078125 -1.625 C 1.796875 -2.882812 1.15625 -4.660156 1.15625 -6.953125 C 1.15625 -9.316406 1.742188 -11.144531 2.921875 -12.4375 C 4.109375 -13.726562 5.75 -14.375 7.84375 -14.375 C 9.832031 -14.375 11.378906 -13.804688 12.484375 -12.671875 C 13.597656 -11.535156 14.15625 -9.96875 14.15625 -7.96875 L 14.15625 -6.09375 L 5.0625 -6.09375 C 5.101562 -5 5.425781 -4.144531 6.03125 -3.53125 C 6.632812 -2.914062 7.484375 -2.609375 8.578125 -2.609375 C 9.429688 -2.609375 10.234375 -2.695312 10.984375 -2.875 C 11.742188 -3.050781 12.535156 -3.332031 13.359375 -3.71875 L 13.359375 -0.75 C 12.691406 -0.40625 11.972656 -0.15625 11.203125 0 C 10.441406 0.164062 9.507812 0.25 8.40625 0.25 Z M 8.40625 0.25 "/></g></g></g><g fill="#ffffff" fill-opacity="1"><g transform="translate(267.075892, 44.773977)"><g><path d="M 14.65625 0 L 10.796875 0 L 10.796875 -8.234375 C 10.796875 -9.253906 10.625 -10.019531 10.28125 -10.53125 C 9.945312 -11.039062 9.414062 -11.296875 8.6875 -11.296875 C 7.695312 -11.296875 6.976562 -10.929688 6.53125 -10.203125 C 6.09375 -9.484375 5.875 -8.296875 5.875 -6.640625 L 5.875 0 L 2.015625 0 L 2.015625 -14.109375 L 4.953125 -14.109375 L 5.484375 -12.296875 L 5.6875 -12.296875 C 6.070312 -12.953125 6.617188 -13.460938 7.328125 -13.828125 C 8.046875 -14.191406 8.867188 -14.375 9.796875 -14.375 C 11.898438 -14.375 13.328125 -13.679688 14.078125 -12.296875 L 14.421875 -12.296875 C 14.796875 -12.953125 15.351562 -13.460938 16.09375 -13.828125 C 16.832031 -14.191406 17.664062 -14.375 18.59375 -14.375 C 20.1875 -14.375 21.394531 -13.960938 22.21875 -13.140625 C 23.039062 -12.316406 23.453125 -11.003906 23.453125 -9.203125 L 23.453125 0 L 19.578125 0 L 19.578125 -8.234375 C 19.578125 -9.253906 19.40625 -10.019531 19.0625 -10.53125 C 18.726562 -11.039062 18.195312 -11.296875 17.46875 -11.296875 C 16.519531 -11.296875 15.8125 -10.957031 15.34375 -10.28125 C 14.882812 -9.613281 14.65625 -8.546875 14.65625 -7.078125 Z M 14.65625 0 "/></g></g></g></svg>