<svg xmlns="http://www.w3.org/2000/svg" xmlns:xlink="http://www.w3.org/1999/xlink" width="400" zoomAndPan="magnify" viewBox="0 0 300 74.999997" height="100" preserveAspectRatio="xMidYMid meet" version="1.0"><defs><g/><clipPath id="ef9d9f3bc4"><path d="M 7.5 14 L 68.25 14 L 68.25 57 L 7.5 57 Z M 7.5 14 " clip-rule="nonzero"/></clipPath><clipPath id="d131cbd1ef"><path d="M 25 58 L 51 58 L 51 67.5 L 25 67.5 Z M 25 58 " clip-rule="nonzero"/></clipPath><clipPath id="030f274171"><path d="M 24 7.5 L 40 7.5 L 40 23 L 24 23 Z M 24 7.5 " clip-rule="nonzero"/></clipPath></defs><g clip-path="url(#ef9d9f3bc4)"><path fill="#000000" d="M 66.675781 14.746094 L 57.882812 14.746094 C 58.773438 15.699219 58.839844 17.222656 58.011719 18.242188 L 57.945312 18.367188 L 64.507812 18.367188 L 64.507812 49.003906 L 11.242188 49.003906 L 11.242188 18.367188 L 23.027344 18.367188 L 22.582031 17.160156 C 22.328125 16.335938 22.453125 15.445312 22.964844 14.746094 L 9.074219 14.746094 C 8.246094 14.746094 7.609375 15.382812 7.609375 16.207031 L 7.609375 55.167969 C 7.609375 55.996094 8.246094 56.632812 9.074219 56.632812 L 66.675781 56.632812 C 67.503906 56.632812 68.140625 55.996094 68.140625 55.167969 L 68.140625 16.207031 C 68.140625 15.382812 67.503906 14.746094 66.675781 14.746094 Z M 37.875 54.660156 C 36.855469 54.660156 36.027344 53.835938 36.027344 52.816406 C 36.027344 51.800781 36.855469 50.972656 37.875 50.972656 C 38.894531 50.972656 39.722656 51.800781 39.722656 52.816406 C 39.722656 53.769531 38.894531 54.660156 37.875 54.660156 Z M 37.875 54.660156 " fill-opacity="1" fill-rule="nonzero"/></g><g clip-path="url(#d131cbd1ef)"><path fill="#000000" d="M 50.425781 65.53125 L 50.425781 66.929688 C 50.425781 67.246094 50.171875 67.5 49.855469 67.5 L 25.894531 67.5 C 25.578125 67.5 25.324219 67.246094 25.324219 66.929688 L 25.324219 65.53125 C 25.324219 65.210938 25.578125 64.957031 25.894531 64.957031 L 30.164062 64.957031 L 31.3125 58.539062 L 44.5 58.539062 L 45.648438 64.957031 L 49.917969 64.957031 C 50.171875 64.957031 50.425781 65.210938 50.425781 65.53125 Z M 50.425781 65.53125 " fill-opacity="1" fill-rule="nonzero"/></g><path fill="#000000" d="M 57.945312 20.910156 L 56.417969 20.71875 C 55.84375 20.65625 55.335938 20.277344 55.078125 19.703125 C 54.886719 19.132812 54.953125 18.558594 55.269531 18.050781 L 56.226562 16.84375 C 56.355469 16.652344 56.355469 16.398438 56.164062 16.207031 L 54.570312 14.617188 C 54.378906 14.429688 54.125 14.429688 53.933594 14.554688 L 52.722656 15.507812 C 52.277344 15.890625 51.636719 15.953125 51.066406 15.699219 C 50.492188 15.507812 50.109375 15 50.046875 14.429688 L 49.980469 12.964844 C 49.980469 12.710938 49.726562 12.519531 49.535156 12.519531 L 47.242188 12.519531 C 46.988281 12.519531 46.796875 12.710938 46.796875 12.964844 L 46.605469 14.492188 C 46.539062 15.0625 46.160156 15.570312 45.585938 15.761719 C 45.011719 16.015625 44.4375 15.953125 43.929688 15.570312 L 42.71875 14.617188 C 42.527344 14.492188 42.273438 14.492188 42.082031 14.683594 L 40.488281 16.269531 C 40.296875 16.460938 40.296875 16.714844 40.421875 16.90625 L 41.378906 18.113281 C 41.761719 18.558594 41.824219 19.195312 41.570312 19.765625 C 41.316406 20.339844 40.871094 20.71875 40.234375 20.785156 L 38.703125 20.972656 C 38.449219 20.972656 38.257812 21.230469 38.257812 21.417969 L 38.257812 23.707031 C 38.257812 23.960938 38.449219 24.152344 38.703125 24.152344 L 40.234375 24.34375 C 40.804688 24.40625 41.316406 24.789062 41.570312 25.359375 C 41.824219 25.933594 41.699219 26.503906 41.378906 27.011719 L 40.421875 28.15625 C 40.296875 28.347656 40.296875 28.601562 40.488281 28.792969 L 42.082031 30.382812 C 42.273438 30.570312 42.527344 30.570312 42.71875 30.445312 L 43.929688 29.492188 C 44.375 29.109375 45.011719 29.046875 45.585938 29.300781 C 46.160156 29.492188 46.539062 30 46.605469 30.636719 L 46.796875 32.160156 C 46.796875 32.414062 47.050781 32.605469 47.242188 32.605469 L 49.535156 32.605469 C 49.789062 32.605469 49.980469 32.414062 49.980469 32.160156 L 50.171875 30.636719 C 50.238281 30.0625 50.617188 29.554688 51.191406 29.300781 C 51.765625 29.046875 52.339844 29.109375 52.847656 29.492188 L 54.058594 30.445312 C 54.25 30.570312 54.503906 30.570312 54.695312 30.382812 L 56.289062 28.792969 C 56.480469 28.601562 56.480469 28.347656 56.355469 28.15625 L 55.398438 26.949219 C 55.015625 26.503906 54.953125 25.867188 55.207031 25.296875 C 55.460938 24.722656 55.90625 24.34375 56.542969 24.28125 L 58.074219 24.089844 C 58.328125 24.027344 58.519531 23.835938 58.519531 23.644531 L 58.519531 21.355469 C 58.390625 21.101562 58.203125 20.910156 57.945312 20.910156 Z M 48.324219 26.886719 C 45.902344 26.886719 43.929688 24.914062 43.929688 22.5 C 43.929688 20.085938 45.902344 18.113281 48.324219 18.113281 C 50.746094 18.113281 52.722656 20.085938 52.722656 22.5 C 52.722656 24.914062 50.746094 26.886719 48.324219 26.886719 Z M 48.324219 26.886719 " fill-opacity="1" fill-rule="nonzero"/><path fill="#000000" d="M 48.324219 19.894531 C 46.859375 19.894531 45.710938 21.039062 45.710938 22.5 C 45.710938 23.960938 46.859375 25.105469 48.324219 25.105469 C 49.789062 25.105469 50.9375 23.960938 50.9375 22.5 C 50.9375 21.039062 49.789062 19.894531 48.324219 19.894531 Z M 48.324219 19.894531 " fill-opacity="1" fill-rule="nonzero"/><path fill="#000000" d="M 40.679688 31.589844 L 39.148438 31.398438 C 38.574219 31.335938 38.066406 30.953125 37.8125 30.382812 C 37.621094 29.808594 37.683594 29.238281 38.003906 28.730469 L 38.957031 27.519531 C 39.085938 27.332031 39.085938 27.078125 38.894531 26.886719 L 37.300781 25.296875 C 37.109375 25.105469 36.855469 25.105469 36.664062 25.234375 L 35.453125 26.1875 C 35.007812 26.566406 34.371094 26.632812 33.796875 26.378906 C 33.222656 26.1875 32.839844 25.679688 32.777344 25.105469 L 32.585938 23.582031 C 32.585938 23.328125 32.332031 23.136719 32.140625 23.136719 L 29.847656 23.136719 C 29.589844 23.136719 29.398438 23.328125 29.398438 23.582031 L 29.210938 25.105469 C 29.144531 25.679688 28.761719 26.1875 28.191406 26.378906 C 27.617188 26.632812 27.042969 26.566406 26.53125 26.1875 L 25.324219 25.234375 C 25.132812 25.105469 24.875 25.105469 24.683594 25.296875 L 23.21875 26.949219 C 23.027344 27.140625 23.027344 27.394531 23.15625 27.585938 L 24.113281 28.792969 C 24.492188 29.238281 24.558594 29.871094 24.304688 30.445312 C 24.046875 31.015625 23.601562 31.398438 22.964844 31.460938 L 21.433594 31.652344 C 21.179688 31.652344 20.988281 31.90625 20.988281 32.097656 L 20.988281 34.386719 C 20.988281 34.640625 21.179688 34.832031 21.433594 34.832031 L 22.964844 35.019531 C 23.539062 35.085938 24.046875 35.464844 24.304688 36.039062 C 24.558594 36.609375 24.429688 37.183594 24.113281 37.691406 L 23.21875 38.835938 C 23.09375 39.027344 23.09375 39.28125 23.285156 39.46875 L 24.875 41.058594 C 25.066406 41.25 25.324219 41.25 25.511719 41.121094 L 26.722656 40.167969 C 27.171875 39.789062 27.808594 39.722656 28.378906 39.980469 C 28.953125 40.167969 29.335938 40.679688 29.398438 41.3125 L 29.589844 42.839844 C 29.589844 43.09375 29.847656 43.285156 30.039062 43.285156 L 32.332031 43.285156 C 32.585938 43.285156 32.777344 43.09375 32.777344 42.839844 L 32.96875 41.3125 C 33.03125 40.742188 33.414062 40.234375 33.988281 39.980469 C 34.5625 39.722656 35.136719 39.789062 35.644531 40.167969 L 36.855469 41.121094 C 37.046875 41.25 37.300781 41.25 37.492188 41.058594 L 39.085938 39.46875 C 39.277344 39.28125 39.277344 39.027344 39.148438 38.835938 L 38.195312 37.628906 C 37.8125 37.183594 37.746094 36.546875 38.003906 35.972656 C 38.257812 35.402344 38.703125 35.019531 39.339844 34.957031 L 40.871094 34.765625 C 41.125 34.703125 41.316406 34.511719 41.316406 34.320312 L 41.316406 32.035156 C 41.125 31.78125 40.933594 31.589844 40.679688 31.589844 Z M 31.121094 37.5625 C 28.699219 37.5625 26.722656 35.59375 26.722656 33.179688 C 26.722656 30.761719 28.699219 28.792969 31.121094 28.792969 C 33.542969 28.792969 35.515625 30.761719 35.515625 33.179688 C 35.453125 35.59375 33.542969 37.5625 31.121094 37.5625 Z M 31.121094 37.5625 " fill-opacity="1" fill-rule="nonzero"/><path fill="#000000" d="M 31.121094 30.570312 C 29.65625 30.570312 28.507812 31.714844 28.507812 33.179688 C 28.507812 34.640625 29.65625 35.785156 31.121094 35.785156 C 32.585938 35.785156 33.734375 34.640625 33.734375 33.179688 C 33.734375 31.714844 32.585938 30.570312 31.121094 30.570312 Z M 31.121094 30.570312 " fill-opacity="1" fill-rule="nonzero"/><g clip-path="url(#030f274171)"><path fill="#000000" d="M 38.765625 16.84375 L 37.8125 16.207031 C 37.429688 15.953125 37.238281 15.570312 37.300781 15.128906 C 37.300781 14.683594 37.554688 14.300781 38.003906 14.109375 L 39.023438 13.601562 C 39.148438 13.539062 39.277344 13.347656 39.214844 13.15625 L 38.640625 11.566406 C 38.511719 11.503906 38.320312 11.378906 38.195312 11.441406 L 37.109375 11.695312 C 36.664062 11.820312 36.28125 11.632812 35.964844 11.3125 C 35.644531 10.996094 35.582031 10.550781 35.707031 10.105469 L 36.089844 9.027344 C 36.15625 8.835938 36.089844 8.644531 35.898438 8.582031 L 34.371094 7.816406 C 34.242188 7.753906 34.050781 7.816406 33.925781 7.945312 L 33.289062 8.898438 C 33.03125 9.28125 32.648438 9.46875 32.203125 9.40625 C 31.757812 9.40625 31.375 9.152344 31.183594 8.769531 L 30.675781 7.753906 C 30.609375 7.5625 30.417969 7.5 30.230469 7.5625 L 28.636719 8.136719 C 28.445312 8.199219 28.378906 8.390625 28.378906 8.515625 L 28.636719 9.597656 C 28.699219 10.042969 28.570312 10.421875 28.253906 10.742188 C 27.933594 11.058594 27.488281 11.121094 27.042969 10.996094 L 25.960938 10.613281 C 25.769531 10.550781 25.640625 10.613281 25.511719 10.804688 L 24.8125 12.265625 C 24.75 12.457031 24.8125 12.585938 24.941406 12.710938 L 25.894531 13.347656 C 26.277344 13.601562 26.46875 13.984375 26.40625 14.429688 C 26.40625 14.871094 26.152344 15.253906 25.769531 15.445312 L 24.75 15.953125 C 24.558594 16.015625 24.492188 16.207031 24.558594 16.398438 L 25.066406 17.988281 C 25.132812 18.179688 25.324219 18.242188 25.449219 18.242188 L 26.597656 17.988281 C 27.042969 17.859375 27.425781 18.050781 27.742188 18.367188 C 28.0625 18.6875 28.125 19.132812 28 19.578125 L 27.617188 20.65625 C 27.550781 20.847656 27.617188 21.039062 27.808594 21.101562 L 29.335938 21.863281 C 29.464844 21.929688 29.71875 21.863281 29.78125 21.738281 L 30.417969 20.785156 C 30.675781 20.402344 31.058594 20.210938 31.503906 20.277344 C 31.949219 20.277344 32.332031 20.53125 32.523438 20.910156 L 33.03125 21.929688 C 33.097656 22.117188 33.289062 22.183594 33.476562 22.117188 L 35.070312 21.546875 C 35.261719 21.484375 35.328125 21.292969 35.328125 21.164062 L 35.070312 20.085938 C 34.945312 19.640625 35.136719 19.257812 35.453125 18.941406 C 35.773438 18.621094 36.21875 18.558594 36.664062 18.6875 L 37.746094 19.066406 C 37.9375 19.132812 38.066406 19.066406 38.195312 18.878906 L 38.894531 17.414062 C 38.957031 17.160156 38.894531 16.96875 38.765625 16.84375 Z M 30.484375 17.734375 C 28.890625 16.96875 28.253906 15.0625 29.019531 13.472656 C 29.78125 11.886719 31.695312 11.25 33.289062 12.011719 C 34.878906 12.777344 35.515625 14.683594 34.753906 16.269531 C 33.988281 17.796875 32.078125 18.496094 30.484375 17.734375 Z M 30.484375 17.734375 " fill-opacity="1" fill-rule="nonzero"/></g><path fill="#000000" d="M 32.777344 13.09375 C 31.820312 12.648438 30.675781 13.03125 30.230469 13.984375 C 29.78125 14.9375 30.164062 16.082031 31.121094 16.527344 C 32.078125 16.96875 33.222656 16.589844 33.667969 15.636719 C 34.117188 14.746094 33.734375 13.601562 32.777344 13.09375 Z M 32.777344 13.09375 " fill-opacity="1" fill-rule="nonzero"/><g fill="#000000" fill-opacity="1"><g transform="translate(70.188866, 44.773978)"><g><path d="M 9.4375 0 L 5.53125 0 L 5.53125 -15.1875 L 0.515625 -15.1875 L 0.515625 -18.453125 L 14.453125 -18.453125 L 14.453125 -15.1875 L 9.4375 -15.1875 Z M 9.4375 0 "/></g></g></g><g fill="#000000" fill-opacity="1"><g transform="translate(85.151573, 44.773978)"><g><path d="M 7.859375 -11.640625 C 7.046875 -11.640625 6.40625 -11.378906 5.9375 -10.859375 C 5.476562 -10.335938 5.21875 -9.601562 5.15625 -8.65625 L 10.546875 -8.65625 C 10.535156 -9.601562 10.285156 -10.335938 9.796875 -10.859375 C 9.316406 -11.378906 8.671875 -11.640625 7.859375 -11.640625 Z M 8.40625 0.25 C 6.132812 0.25 4.359375 -0.375 3.078125 -1.625 C 1.796875 -2.882812 1.15625 -4.660156 1.15625 -6.953125 C 1.15625 -9.316406 1.742188 -11.144531 2.921875 -12.4375 C 4.109375 -13.726562 5.75 -14.375 7.84375 -14.375 C 9.832031 -14.375 11.378906 -13.804688 12.484375 -12.671875 C 13.597656 -11.535156 14.15625 -9.96875 14.15625 -7.96875 L 14.15625 -6.09375 L 5.0625 -6.09375 C 5.101562 -5 5.425781 -4.144531 6.03125 -3.53125 C 6.632812 -2.914062 7.484375 -2.609375 8.578125 -2.609375 C 9.429688 -2.609375 10.234375 -2.695312 10.984375 -2.875 C 11.742188 -3.050781 12.535156 -3.332031 13.359375 -3.71875 L 13.359375 -0.75 C 12.691406 -0.40625 11.972656 -0.15625 11.203125 0 C 10.441406 0.164062 9.507812 0.25 8.40625 0.25 Z M 8.40625 0.25 "/></g></g></g><g fill="#000000" fill-opacity="1"><g transform="translate(100.417067, 44.773978)"><g><path d="M 14.65625 0 L 10.796875 0 L 10.796875 -8.234375 C 10.796875 -9.253906 10.625 -10.019531 10.28125 -10.53125 C 9.945312 -11.039062 9.414062 -11.296875 8.6875 -11.296875 C 7.695312 -11.296875 6.976562 -10.929688 6.53125 -10.203125 C 6.09375 -9.484375 5.875 -8.296875 5.875 -6.640625 L 5.875 0 L 2.015625 0 L 2.015625 -14.109375 L 4.953125 -14.109375 L 5.484375 -12.296875 L 5.6875 -12.296875 C 6.070312 -12.953125 6.617188 -13.460938 7.328125 -13.828125 C 8.046875 -14.191406 8.867188 -14.375 9.796875 -14.375 C 11.898438 -14.375 13.328125 -13.679688 14.078125 -12.296875 L 14.421875 -12.296875 C 14.796875 -12.953125 15.351562 -13.460938 16.09375 -13.828125 C 16.832031 -14.191406 17.664062 -14.375 18.59375 -14.375 C 20.1875 -14.375 21.394531 -13.960938 22.21875 -13.140625 C 23.039062 -12.316406 23.453125 -11.003906 23.453125 -9.203125 L 23.453125 0 L 19.578125 0 L 19.578125 -8.234375 C 19.578125 -9.253906 19.40625 -10.019531 19.0625 -10.53125 C 18.726562 -11.039062 18.195312 -11.296875 17.46875 -11.296875 C 16.519531 -11.296875 15.8125 -10.957031 15.34375 -10.28125 C 14.882812 -9.613281 14.65625 -8.546875 14.65625 -7.078125 Z M 14.65625 0 "/></g></g></g><g fill="#000000" fill-opacity="1"><g transform="translate(125.788066, 44.773978)"><g><path d="M 9.765625 0.25 C 8.109375 0.25 6.8125 -0.347656 5.875 -1.546875 L 5.671875 -1.546875 C 5.804688 -0.367188 5.875 0.304688 5.875 0.484375 L 5.875 6.203125 L 2.015625 6.203125 L 2.015625 -14.109375 L 5.15625 -14.109375 L 5.6875 -12.28125 L 5.875 -12.28125 C 6.769531 -13.675781 8.101562 -14.375 9.875 -14.375 C 11.53125 -14.375 12.828125 -13.726562 13.765625 -12.4375 C 14.710938 -11.15625 15.1875 -9.367188 15.1875 -7.078125 C 15.1875 -5.578125 14.96875 -4.269531 14.53125 -3.15625 C 14.09375 -2.039062 13.460938 -1.191406 12.640625 -0.609375 C 11.828125 -0.0351562 10.867188 0.25 9.765625 0.25 Z M 8.625 -11.296875 C 7.675781 -11.296875 6.984375 -11.003906 6.546875 -10.421875 C 6.109375 -9.835938 5.882812 -8.867188 5.875 -7.515625 L 5.875 -7.109375 C 5.875 -5.585938 6.097656 -4.5 6.546875 -3.84375 C 6.992188 -3.1875 7.707031 -2.859375 8.6875 -2.859375 C 10.40625 -2.859375 11.265625 -4.28125 11.265625 -7.125 C 11.265625 -8.519531 11.050781 -9.5625 10.625 -10.25 C 10.207031 -10.945312 9.539062 -11.296875 8.625 -11.296875 Z M 8.625 -11.296875 "/></g></g></g><g fill="#000000" fill-opacity="1"><g transform="translate(142.138546, 44.773978)"><g><path d="M 5.875 0 L 2.015625 0 L 2.015625 -19.640625 L 5.875 -19.640625 Z M 5.875 0 "/></g></g></g><g fill="#000000" fill-opacity="1"><g transform="translate(150.023615, 44.773978)"><g><path d="M 10.984375 0 L 10.234375 -1.921875 L 10.140625 -1.921875 C 9.484375 -1.097656 8.8125 -0.53125 8.125 -0.21875 C 7.445312 0.09375 6.554688 0.25 5.453125 0.25 C 4.097656 0.25 3.03125 -0.132812 2.25 -0.90625 C 1.46875 -1.675781 1.078125 -2.78125 1.078125 -4.21875 C 1.078125 -5.71875 1.601562 -6.820312 2.65625 -7.53125 C 3.707031 -8.238281 5.285156 -8.628906 7.390625 -8.703125 L 9.84375 -8.78125 L 9.84375 -9.40625 C 9.84375 -10.832031 9.109375 -11.546875 7.640625 -11.546875 C 6.515625 -11.546875 5.191406 -11.207031 3.671875 -10.53125 L 2.390625 -13.125 C 4.015625 -13.96875 5.816406 -14.390625 7.796875 -14.390625 C 9.691406 -14.390625 11.144531 -13.976562 12.15625 -13.15625 C 13.164062 -12.332031 13.671875 -11.082031 13.671875 -9.40625 L 13.671875 0 Z M 9.84375 -6.53125 L 8.359375 -6.484375 C 7.234375 -6.453125 6.394531 -6.25 5.84375 -5.875 C 5.300781 -5.507812 5.03125 -4.945312 5.03125 -4.1875 C 5.03125 -3.101562 5.65625 -2.5625 6.90625 -2.5625 C 7.789062 -2.5625 8.5 -2.816406 9.03125 -3.328125 C 9.570312 -3.835938 9.84375 -4.519531 9.84375 -5.375 Z M 9.84375 -6.53125 "/></g></g></g><g fill="#000000" fill-opacity="1"><g transform="translate(165.629744, 44.773978)"><g><path d="M 7.96875 -2.8125 C 8.632812 -2.8125 9.441406 -2.957031 10.390625 -3.25 L 10.390625 -0.390625 C 9.429688 0.0351562 8.253906 0.25 6.859375 0.25 C 5.316406 0.25 4.191406 -0.132812 3.484375 -0.90625 C 2.785156 -1.6875 2.4375 -2.859375 2.4375 -4.421875 L 2.4375 -11.21875 L 0.59375 -11.21875 L 0.59375 -12.84375 L 2.71875 -14.140625 L 3.828125 -17.109375 L 6.28125 -17.109375 L 6.28125 -14.109375 L 10.234375 -14.109375 L 10.234375 -11.21875 L 6.28125 -11.21875 L 6.28125 -4.421875 C 6.28125 -3.867188 6.429688 -3.460938 6.734375 -3.203125 C 7.046875 -2.941406 7.457031 -2.8125 7.96875 -2.8125 Z M 7.96875 -2.8125 "/></g></g></g><g fill="#000000" fill-opacity="1"><g transform="translate(176.845467, 44.773978)"><g><path d="M 7.859375 -11.640625 C 7.046875 -11.640625 6.40625 -11.378906 5.9375 -10.859375 C 5.476562 -10.335938 5.21875 -9.601562 5.15625 -8.65625 L 10.546875 -8.65625 C 10.535156 -9.601562 10.285156 -10.335938 9.796875 -10.859375 C 9.316406 -11.378906 8.671875 -11.640625 7.859375 -11.640625 Z M 8.40625 0.25 C 6.132812 0.25 4.359375 -0.375 3.078125 -1.625 C 1.796875 -2.882812 1.15625 -4.660156 1.15625 -6.953125 C 1.15625 -9.316406 1.742188 -11.144531 2.921875 -12.4375 C 4.109375 -13.726562 5.75 -14.375 7.84375 -14.375 C 9.832031 -14.375 11.378906 -13.804688 12.484375 -12.671875 C 13.597656 -11.535156 14.15625 -9.96875 14.15625 -7.96875 L 14.15625 -6.09375 L 5.0625 -6.09375 C 5.101562 -5 5.425781 -4.144531 6.03125 -3.53125 C 6.632812 -2.914062 7.484375 -2.609375 8.578125 -2.609375 C 9.429688 -2.609375 10.234375 -2.695312 10.984375 -2.875 C 11.742188 -3.050781 12.535156 -3.332031 13.359375 -3.71875 L 13.359375 -0.75 C 12.691406 -0.40625 11.972656 -0.15625 11.203125 0 C 10.441406 0.164062 9.507812 0.25 8.40625 0.25 Z M 8.40625 0.25 "/></g></g></g><g fill="#000000" fill-opacity="1"><g transform="translate(192.110961, 44.773978)"><g/></g></g><g fill="#000000" fill-opacity="1"><g transform="translate(198.822732, 44.773978)"><g><path d="M 13.21875 -5.125 C 13.21875 -3.457031 12.613281 -2.144531 11.40625 -1.1875 C 10.207031 -0.226562 8.539062 0.25 6.40625 0.25 C 4.4375 0.25 2.695312 -0.117188 1.1875 -0.859375 L 1.1875 -4.5 C 2.425781 -3.9375 3.476562 -3.539062 4.34375 -3.3125 C 5.207031 -3.09375 6 -2.984375 6.71875 -2.984375 C 7.570312 -2.984375 8.226562 -3.144531 8.6875 -3.46875 C 9.144531 -3.800781 9.375 -4.289062 9.375 -4.9375 C 9.375 -5.300781 9.269531 -5.625 9.0625 -5.90625 C 8.863281 -6.1875 8.566406 -6.457031 8.171875 -6.71875 C 7.785156 -6.976562 6.992188 -7.394531 5.796875 -7.96875 C 4.660156 -8.488281 3.8125 -8.992188 3.25 -9.484375 C 2.6875 -9.972656 2.238281 -10.539062 1.90625 -11.1875 C 1.570312 -11.84375 1.40625 -12.601562 1.40625 -13.46875 C 1.40625 -15.09375 1.957031 -16.375 3.0625 -17.3125 C 4.164062 -18.25 5.691406 -18.71875 7.640625 -18.71875 C 8.597656 -18.71875 9.515625 -18.601562 10.390625 -18.375 C 11.265625 -18.144531 12.175781 -17.828125 13.125 -17.421875 L 11.859375 -14.375 C 10.878906 -14.78125 10.066406 -15.0625 9.421875 -15.21875 C 8.773438 -15.375 8.140625 -15.453125 7.515625 -15.453125 C 6.773438 -15.453125 6.207031 -15.28125 5.8125 -14.9375 C 5.414062 -14.59375 5.21875 -14.144531 5.21875 -13.59375 C 5.21875 -13.25 5.296875 -12.945312 5.453125 -12.6875 C 5.617188 -12.425781 5.875 -12.175781 6.21875 -11.9375 C 6.570312 -11.695312 7.398438 -11.269531 8.703125 -10.65625 C 10.429688 -9.820312 11.613281 -8.988281 12.25 -8.15625 C 12.894531 -7.332031 13.21875 -6.320312 13.21875 -5.125 Z M 13.21875 -5.125 "/></g></g></g><g fill="#000000" fill-opacity="1"><g transform="translate(213.053705, 44.773978)"><g><path d="M 0 -14.109375 L 4.21875 -14.109375 L 6.875 -6.171875 C 7.101562 -5.484375 7.257812 -4.664062 7.34375 -3.71875 L 7.421875 -3.71875 C 7.515625 -4.582031 7.695312 -5.398438 7.96875 -6.171875 L 10.578125 -14.109375 L 14.703125 -14.109375 L 8.734375 1.796875 C 8.179688 3.273438 7.398438 4.378906 6.390625 5.109375 C 5.378906 5.835938 4.195312 6.203125 2.84375 6.203125 C 2.175781 6.203125 1.523438 6.132812 0.890625 6 L 0.890625 2.9375 C 1.347656 3.050781 1.847656 3.109375 2.390625 3.109375 C 3.078125 3.109375 3.675781 2.898438 4.1875 2.484375 C 4.695312 2.066406 5.09375 1.4375 5.375 0.59375 L 5.609375 -0.09375 Z M 0 -14.109375 "/></g></g></g><g fill="#000000" fill-opacity="1"><g transform="translate(227.751474, 44.773978)"><g><path d="M 11.859375 -4.1875 C 11.859375 -2.738281 11.351562 -1.632812 10.34375 -0.875 C 9.34375 -0.125 7.84375 0.25 5.84375 0.25 C 4.8125 0.25 3.929688 0.179688 3.203125 0.046875 C 2.484375 -0.0859375 1.8125 -0.289062 1.1875 -0.5625 L 1.1875 -3.75 C 1.90625 -3.414062 2.710938 -3.132812 3.609375 -2.90625 C 4.503906 -2.675781 5.289062 -2.5625 5.96875 -2.5625 C 7.363281 -2.5625 8.0625 -2.960938 8.0625 -3.765625 C 8.0625 -4.078125 7.96875 -4.328125 7.78125 -4.515625 C 7.601562 -4.703125 7.285156 -4.914062 6.828125 -5.15625 C 6.367188 -5.394531 5.765625 -5.675781 5.015625 -6 C 3.921875 -6.445312 3.117188 -6.863281 2.609375 -7.25 C 2.109375 -7.644531 1.738281 -8.09375 1.5 -8.59375 C 1.269531 -9.09375 1.15625 -9.707031 1.15625 -10.4375 C 1.15625 -11.6875 1.640625 -12.65625 2.609375 -13.34375 C 3.585938 -14.03125 4.96875 -14.375 6.75 -14.375 C 8.445312 -14.375 10.097656 -14.003906 11.703125 -13.265625 L 10.546875 -10.484375 C 9.835938 -10.785156 9.175781 -11.03125 8.5625 -11.21875 C 7.945312 -11.414062 7.320312 -11.515625 6.6875 -11.515625 C 5.550781 -11.515625 4.984375 -11.207031 4.984375 -10.59375 C 4.984375 -10.25 5.164062 -9.953125 5.53125 -9.703125 C 5.894531 -9.453125 6.695312 -9.078125 7.9375 -8.578125 C 9.039062 -8.128906 9.847656 -7.710938 10.359375 -7.328125 C 10.867188 -6.941406 11.242188 -6.492188 11.484375 -5.984375 C 11.734375 -5.484375 11.859375 -4.882812 11.859375 -4.1875 Z M 11.859375 -4.1875 "/></g></g></g><g fill="#000000" fill-opacity="1"><g transform="translate(240.594675, 44.773978)"><g><path d="M 7.96875 -2.8125 C 8.632812 -2.8125 9.441406 -2.957031 10.390625 -3.25 L 10.390625 -0.390625 C 9.429688 0.0351562 8.253906 0.25 6.859375 0.25 C 5.316406 0.25 4.191406 -0.132812 3.484375 -0.90625 C 2.785156 -1.6875 2.4375 -2.859375 2.4375 -4.421875 L 2.4375 -11.21875 L 0.59375 -11.21875 L 0.59375 -12.84375 L 2.71875 -14.140625 L 3.828125 -17.109375 L 6.28125 -17.109375 L 6.28125 -14.109375 L 10.234375 -14.109375 L 10.234375 -11.21875 L 6.28125 -11.21875 L 6.28125 -4.421875 C 6.28125 -3.867188 6.429688 -3.460938 6.734375 -3.203125 C 7.046875 -2.941406 7.457031 -2.8125 7.96875 -2.8125 Z M 7.96875 -2.8125 "/></g></g></g><g fill="#000000" fill-opacity="1"><g transform="translate(251.810398, 44.773978)"><g><path d="M 7.859375 -11.640625 C 7.046875 -11.640625 6.40625 -11.378906 5.9375 -10.859375 C 5.476562 -10.335938 5.21875 -9.601562 5.15625 -8.65625 L 10.546875 -8.65625 C 10.535156 -9.601562 10.285156 -10.335938 9.796875 -10.859375 C 9.316406 -11.378906 8.671875 -11.640625 7.859375 -11.640625 Z M 8.40625 0.25 C 6.132812 0.25 4.359375 -0.375 3.078125 -1.625 C 1.796875 -2.882812 1.15625 -4.660156 1.15625 -6.953125 C 1.15625 -9.316406 1.742188 -11.144531 2.921875 -12.4375 C 4.109375 -13.726562 5.75 -14.375 7.84375 -14.375 C 9.832031 -14.375 11.378906 -13.804688 12.484375 -12.671875 C 13.597656 -11.535156 14.15625 -9.96875 14.15625 -7.96875 L 14.15625 -6.09375 L 5.0625 -6.09375 C 5.101562 -5 5.425781 -4.144531 6.03125 -3.53125 C 6.632812 -2.914062 7.484375 -2.609375 8.578125 -2.609375 C 9.429688 -2.609375 10.234375 -2.695312 10.984375 -2.875 C 11.742188 -3.050781 12.535156 -3.332031 13.359375 -3.71875 L 13.359375 -0.75 C 12.691406 -0.40625 11.972656 -0.15625 11.203125 0 C 10.441406 0.164062 9.507812 0.25 8.40625 0.25 Z M 8.40625 0.25 "/></g></g></g><g fill="#000000" fill-opacity="1"><g transform="translate(267.075892, 44.773978)"><g><path d="M 14.65625 0 L 10.796875 0 L 10.796875 -8.234375 C 10.796875 -9.253906 10.625 -10.019531 10.28125 -10.53125 C 9.945312 -11.039062 9.414062 -11.296875 8.6875 -11.296875 C 7.695312 -11.296875 6.976562 -10.929688 6.53125 -10.203125 C 6.09375 -9.484375 5.875 -8.296875 5.875 -6.640625 L 5.875 0 L 2.015625 0 L 2.015625 -14.109375 L 4.953125 -14.109375 L 5.484375 -12.296875 L 5.6875 -12.296875 C 6.070312 -12.953125 6.617188 -13.460938 7.328125 -13.828125 C 8.046875 -14.191406 8.867188 -14.375 9.796875 -14.375 C 11.898438 -14.375 13.328125 -13.679688 14.078125 -12.296875 L 14.421875 -12.296875 C 14.796875 -12.953125 15.351562 -13.460938 16.09375 -13.828125 C 16.832031 -14.191406 17.664062 -14.375 18.59375 -14.375 C 20.1875 -14.375 21.394531 -13.960938 22.21875 -13.140625 C 23.039062 -12.316406 23.453125 -11.003906 23.453125 -9.203125 L 23.453125 0 L 19.578125 0 L 19.578125 -8.234375 C 19.578125 -9.253906 19.40625 -10.019531 19.0625 -10.53125 C 18.726562 -11.039062 18.195312 -11.296875 17.46875 -11.296875 C 16.519531 -11.296875 15.8125 -10.957031 15.34375 -10.28125 C 14.882812 -9.613281 14.65625 -8.546875 14.65625 -7.078125 Z M 14.65625 0 "/></g></g></g></svg>